<svg width="1044" height="435" fill="none" xmlns="http://www.w3.org/2000/svg"><rect y="83" width="1000" height="352" rx="176" fill="#5267DF"/><rect x="604" width="350" height="346" rx="8" fill="#E8EAF6"/><mask id="a" style="mask-type:alpha" maskUnits="userSpaceOnUse" x="604" y="0" width="350" height="346"><rect x="604" width="350" height="346" rx="8" fill="#fff"/></mask><g mask="url(#a)"><path fill="#242A45" d="M600.47.197h547v59h-547z"/><circle opacity=".245" cx="642.47" cy="30.197" r="16" fill="#fff"/><rect opacity=".75" x="673.47" y="20.197" width="120" height="6" rx="3" fill="#fff"/><rect opacity=".25" x="673.47" y="34.197" width="64" height="6" rx="3" fill="#fff"/></g><rect x="631" y="85" width="237" height="34" rx="8" fill="#fff"/><rect x="631" y="133" width="237" height="34" rx="8" fill="#fff"/><rect x="631" y="181" width="237" height="34" rx="8" fill="#fff"/><rect x="631" y="229" width="237" height="34" rx="8" fill="#fff"/><rect x="631" y="277" width="237" height="34" rx="8" fill="#fff"/><mask id="b" style="mask-type:alpha" maskUnits="userSpaceOnUse" x="694" y="83" width="350" height="296"><path fill-rule="evenodd" clip-rule="evenodd" d="M1044 83.048H694.219V379H1044V83.048Z" fill="#fff"/></mask><g mask="url(#b)"><path fill-rule="evenodd" clip-rule="evenodd" d="M695.293 333.34c.67 2.018 1.715 3.998 3.174 5.935 25.202 33.474 119.376 44.633 212.224 37.814 48.476-3.562 82.67-24.526 104.279-43.749 5.17-4.594 9.61-9.088 13.36-13.222 4.67-5.146 8.32-10.861 10.91-16.896 7.65-17.778 6.18-38.316-5.12-55.161-9.58-14.276-22.72-24.824-29.51-36.543-12.936-22.316 55.43-78.736 10.94-114.38-15.702-12.584-49.157-15.488-85.66-13.536-44.428 2.378-93.365 11.955-120.284 20.045-55.712 16.737-90.58 40.981-98.539 68.256-7.958 27.276 13.311 39.618 31.88 65.654 17.495 24.526-58.553 62.997-47.654 95.783Z" fill="#3A499E"/></g><path fill-rule="evenodd" clip-rule="evenodd" d="M789.451 173.872 806.436 171 809 186.799 788 193l1.451-19.128Z" fill="#306299"/><path fill-rule="evenodd" clip-rule="evenodd" d="M807 172.118s13.176-.347 27-6.118l-6.496 12.254L808.751 184 807 172.118Z" fill="#FA9E89"/><mask id="c" style="mask-type:alpha" maskUnits="userSpaceOnUse" x="884" y="85" width="158" height="220"><path fill-rule="evenodd" clip-rule="evenodd" d="M1042 85.048H884.175v219.844H1042V85.048Z" fill="#fff"/></mask><g mask="url(#c)"><path opacity=".152" fill-rule="evenodd" clip-rule="evenodd" d="M884.934 137.186c8.112 40.159 146.006 101.69 152.636 167.706 7.12-17.752 5.75-38.258-4.77-55.078-8.91-14.255-21.15-24.787-27.47-36.489-12.039-22.282 51.6-78.618 10.19-114.208-14.62-12.565-45.762-15.465-79.741-13.516-10.344 2.365-58.164 15.332-50.845 51.585Z" fill="#fff"/></g><path opacity=".149" fill-rule="evenodd" clip-rule="evenodd" d="M692.179 326c-.984 7.866 2.342 13.336 3.64 15.227 22.43 32.672 144.495 43.563 227.132 36.908 43.145-3.476 78.509-25.715 100.049-50.219L692.179 326Z" fill="#000"/><path opacity=".128" fill-rule="evenodd" clip-rule="evenodd" d="M970.373 329.812s10.077.61 9.922 3.66c-.155 3.049-6.511 9.758-6.511 9.758l9.509-3.405 28.707-1.093-3.1 2.669s-23.127 1.067-24.16 1.88c-1.034.813-14.264 10.776-16.537 11.182-2.274.407-146.688.225-146.688.225s-14.858.589-17.339-3.986c-2.48-4.574-11.472-4.269-13.953-.305-2.48 3.965-2.136 18.603-2.136 18.603s-6.793-1.773-7.166-1.931C757.356 357.106 731 326 731 326l239.373 3.812Z" fill="#000"/><path fill-rule="evenodd" clip-rule="evenodd" d="m1001 290.695-14.451 49.163s-2.055 2.444-3.549.18L992.714 290l8.286.695ZM1020.87 289l7.13 33.138-3.4 3.862-9.6-36.046 5.87-.954Z" fill="#162F44"/><path fill-rule="evenodd" clip-rule="evenodd" d="m808.507 300.082-6.025 34.2-.999 5.669 2.192.322.156.024 4.788.703s15.971-39.344 17.33-48.787c1.36-9.443-25.145-47.213-25.145-47.213l-28.768 2.448c-.761 8.219 10.744 23.711 21.027 35.77 8.101 9.499 15.444 16.864 15.444 16.864Z" fill="#F4F2F9"/><path fill-rule="evenodd" clip-rule="evenodd" d="m808.119 298.535-6.876 39.767 2.146.321.073.377.08-.352c.875-3.83 11.14-37.737 11.452-44.648.333-7.326-14.027-30-14.027-30L793 281.714c7.931 9.474 15.119 16.821 15.119 16.821Z" fill="#E0DFEA"/><path fill-rule="evenodd" clip-rule="evenodd" d="m770 249 28.667-2.387L800 198.886S793 174 785.333 174c-4.553 0-8.986 1.804-11.699 6.195-1.854 3.003-2.904 7.22-2.634 12.896.61 12.777-.73 48.907-.967 55.022-.019.577-.033.887-.033.887Z" fill="#6397D9"/><path fill-rule="evenodd" clip-rule="evenodd" d="m777.885 245.276-.538-56.818L784 174.937l-7.763-.937-2.729 3.211c-1.789 3.002-2.803 7.218-2.542 12.893.589 12.774-.737 49.782-.966 55.896l7.885-.724Z" fill="#8BBFF7"/><path fill-rule="evenodd" clip-rule="evenodd" d="m778 190 21.017 40 .546-17.991.437-14.598L782.476 190H778Z" fill="#306299"/><path fill-rule="evenodd" clip-rule="evenodd" d="M831.671 353h128.658c4.789 0 8.671-3.908 8.671-8.73V123.73c0-4.822-3.882-8.73-8.671-8.73H831.671c-4.789 0-8.671 3.908-8.671 8.73v220.54c0 4.822 3.882 8.73 8.671 8.73Z" fill="#fff"/><path fill-rule="evenodd" clip-rule="evenodd" d="M831 146.29v88.42c0 1.818 1.456 3.29 3.253 3.29h123.494c1.797 0 3.253-1.472 3.253-3.29v-88.42c0-1.818-1.456-3.29-3.253-3.29H834.253c-1.797 0-3.253 1.472-3.253 3.29Z" fill="#E4DCF1"/><path fill-rule="evenodd" clip-rule="evenodd" d="m895.147 167 1.552 1.183L900 182.554l-.071 2.367-5.227.079a1.968 1.968 0 0 1-1.031-.251c-1.494-.877-2.132-3.324-1.307-5.492.444-1.166 1.581-3.229 1.713-4.142.314-2.184 1.07-8.115 1.07-8.115Z" fill="#8E2B43"/><path fill-rule="evenodd" clip-rule="evenodd" d="m868 241 54.224-.208 1.795-.006s6.487-30.649-4.016-42.461c-2.558-2.874-5.883-4.993-9.506-6.369-11.273-4.298-25.453-1.456-28.493 7.965C877.988 212.372 868 241 868 241Z" fill="#4EC9B4"/><path fill-rule="evenodd" clip-rule="evenodd" d="M910.16 192.489s-2.215 6.026-7.103 7.294c-4.888 1.269-10.489-3.224-10.031-8.457 0 0 4.685-.687 5.448-2.96.928-2.761.306-2.854.306-2.854s-1.833-3.489-2.444-6.026.305-12.369 4.582-13.321c2.705-.601 7.027.318 10.082 4.758 0 0-1.528 8.563-3.666 12.686-2.139 4.123-3.208 6.026 2.826 8.88Z" fill="#FA9E89"/><path opacity=".184" fill-rule="evenodd" clip-rule="evenodd" d="M834.167 116.013 967 302.239v42.244c0 4.704-3.699 8.517-8.263 8.517H838.573c-5.287 0-9.573-4.418-9.573-9.869V119.827c0-2.929 2.33-3.956 5.167-3.814Z" fill="#F4F2F9"/><path fill-rule="evenodd" clip-rule="evenodd" d="M874 222.442 867.018 192 856 193.816 866.684 238 874 222.442Z" fill="#4EC9B4"/><path fill-rule="evenodd" clip-rule="evenodd" d="m864.8 191.137-.6-3.106s1.8-1.184 1.5-2.959c-.3-1.775.3-5.917.3-5.917s-.957-.647-1.575.518c-.441.829-1.125 2.737-1.125 2.737s-2.296-6.166-2.826-7.791c-.225-.69-.452-1.766-.975-1.602-.275.086-.175.715-.128 1.33.14 1.844.928 4.784.928 4.784l-.4.234-1.663-5.276c-.073-.256-.193-.644-.462-.665-.238-.019-.475.111-.475.702 0 1.184 1.275 6.077 1.275 6.077l-.319.219-1.935-4.278c-.133-.323-.613-.295-.695.044-.065.268-.046.651.173 1.192.6 1.48 1.201 3.846 1.201 3.846l-.151.173-1.05-2.17c-.188-.347-.649-.57-.783-.2-.188.518 1.458 4.971 1.458 5.267 0 .296 1.126 4.326 2.326 4.622 1.2.296 1.275 3.082 1.275 3.082l4.726-.863Z" fill="#FA9E89"/><path fill-rule="evenodd" clip-rule="evenodd" d="M934.351 264h22.298c1.298 0 2.351-1.072 2.351-2.394v-3.212c0-1.322-1.053-2.394-2.351-2.394h-22.298c-1.298 0-2.351 1.072-2.351 2.394v3.212c0 1.322 1.053 2.394 2.351 2.394ZM902.351 264h22.298c1.298 0 2.351-1.072 2.351-2.394v-3.212c0-1.322-1.053-2.394-2.351-2.394h-22.298c-1.298 0-2.351 1.072-2.351 2.394v3.212c0 1.322 1.053 2.394 2.351 2.394ZM868.352 264h22.297c1.298 0 2.351-1.072 2.351-2.394v-3.212c0-1.322-1.053-2.394-2.351-2.394h-22.297c-1.299 0-2.352 1.072-2.352 2.394v3.212c0 1.322 1.053 2.394 2.352 2.394ZM836.351 264h22.298c1.298 0 2.351-1.072 2.351-2.394v-3.212c0-1.322-1.053-2.394-2.351-2.394h-22.298c-1.298 0-2.351 1.072-2.351 2.394v3.212c0 1.322 1.053 2.394 2.351 2.394Z" fill="#FFDEDD"/><path fill-rule="evenodd" clip-rule="evenodd" d="M838.547 283h117.906c1.407 0 2.547-1.079 2.547-2.411v-3.178c0-1.332-1.14-2.411-2.547-2.411H838.547c-1.407 0-2.547 1.079-2.547 2.411v3.178c0 1.332 1.14 2.411 2.547 2.411ZM956.453 299c1.407 0 2.547-1.079 2.547-2.411v-3.178c0-1.332-1.14-2.411-2.547-2.411H838.547c-1.407 0-2.547 1.079-2.547 2.411v3.178c0 1.332 1.14 2.411 2.547 2.411h117.906ZM838.547 315h117.906c1.407 0 2.547-1.079 2.547-2.411v-3.178c0-1.332-1.14-2.411-2.547-2.411H838.547c-1.407 0-2.547 1.079-2.547 2.411v3.178c0 1.332 1.14 2.411 2.547 2.411ZM838.547 328h117.906c1.407 0 2.547-1.079 2.547-2.411v-3.178c0-1.332-1.14-2.411-2.547-2.411H838.547c-1.407 0-2.547 1.079-2.547 2.411v3.178c0 1.332 1.14 2.411 2.547 2.411Z" fill="#F4F2F9"/><path fill-rule="evenodd" clip-rule="evenodd" d="M913.222 163.321s-6.301-8.848-18.189-3.725c-11.889 5.122 1.016 13.504 1.016 13.504s.254-3.26 2.134-4.191l-.153 2.897 6.656 1.165 1.067-2.794.686 3.182 3.353 1.241s-2.743 9.624-4.344 11.021c0 0-.686 2.251-.457 2.716.229.466 10.364 3.027 11.66.699 1.296-2.328-1.372-5.588-2.21-7.761-.838-2.173 1.524-13.711-1.219-17.954Z" fill="#FC516B"/><path fill-rule="evenodd" clip-rule="evenodd" d="M942.352 139h17.296c1.299 0 2.352-1.343 2.352-3s-1.053-3-2.352-3h-17.296c-1.299 0-2.352 1.343-2.352 3s1.053 3 2.352 3Z" fill="#E4DCF1"/><path fill-rule="evenodd" clip-rule="evenodd" d="M916 211s-2.664 19.286-5.709 27h-16.062s-2.647-8.138 10.048-10.8C913.107 225.349 916 211 916 211ZM884.389 206s-3.259 10-2.648 13c.611 3 3.259 5.2 3.259 7.2s-1.63 9.6-1.63 9.6l-9.37.2s1.556-.266 5.093-3.05c5.398-4.25.764-13.625 1.909-18.95.601-2.794 3.387-8 3.387-8ZM874 221.772s-.213 8.383-1.915 7.093c-1.702-1.29-.638-13.757-2.127-18.056-1.49-4.299-5.958-18.057-5.958-18.057l3.83-.752 6.17 29.772Z" fill="#44AD99"/><path fill-rule="evenodd" clip-rule="evenodd" d="M848.623 183.475s-1.576.692-3.499 3.046c-.637.78-4.031 2.021-4.834 2.988-11.645 14.02-27.196 24.841-37.164 20.533C790.396 204.54 788 199.424 788 199.424l8.414-11.362s9.663 14.759 17.434 10.739c7.772-4.02 23.092-14.557 23.092-14.557l.406-6.464s.895-.24 1.324.995c.43 1.236.45 2.304.45 2.304l6.049-7.024s1.162-.36.808.769c-.354 1.129-2.491 4.368-2.491 4.368s-.219.616.243.335c.54-.327 4.766-5.092 4.766-5.092s.973-.064.576.866c-.307.717-2.865 4.091-3.73 5.354-.258.376.282.235.282.235l3.496-2.969c.473-.32.963-.214.869.367-.074.46-1.026 1.519-1.592 1.939-1.414 1.046-2.4 2.952-2.4 2.952l3.044-1.099s.595.527-.417 1.395ZM777 146.49l3.851 28.32 12.644 2.19s-.641-.668-1.372-1.56c-.748-.907-1.591-2.049-1.963-2.966-.85-2.104-.856-4.066-.856-4.066s5.608.633 6.477-2.595c.872-3.232-1.143-18.284-1.143-18.284s-2.502-9.458-17.638-1.039Z" fill="#FA9E89"/><path fill-rule="evenodd" clip-rule="evenodd" d="M787.613 146.812s6.236 4.71 12.219.698c0 0-3.792-.349-4.972-2.268 0 0 2.359.611 5.14-3.314 0 0-4.887.698-6.572-.785-1.686-1.483-10.281-3.838-15.421-.262-5.14 3.576-5.056 6.193-5.056 6.193s-3.033 1.133-2.949 2.878c.084 1.744 7.499 16.048 7.499 16.048l1.601-6.367s-1.264.378-2.022-2.587c-.758-2.966 2.528-1.687 2.865-1.076.337.611 2.528-4.187 2.528-4.187l-.337-2.791s-1.096-3.576 5.477-2.18Z" fill="#261F27"/><path fill-rule="evenodd" clip-rule="evenodd" d="M775.786 279.384c3.591 14.487-3.05 72.409-3.05 72.409l6.498 1.207c26.161-60.015 20.176-109 20.176-109L770 246.414s.075-1.224.106-.934c.338 3.008 2.408 20.689 5.68 33.904Z" fill="#fff"/><path fill-rule="evenodd" clip-rule="evenodd" d="m808.27 337.076 7.553 5.859s2.975-.359 3.548 1.016c.572 1.375.629 2.929.629 2.929l-7.896.12L799 341.799l2.06-5.799 7.21 1.076ZM778.449 354.34s2.673 4.322 5.366 7.852c.905 1.186 3.117 1.701 3.978 4.595.74 2.489-.74 4.213-.74 4.213s-4.965-.894-8.419-3.957c-3.453-3.064-8.634-8.937-8.634-8.937l1.418-5.106 7.031 1.34Z" fill="#6397D9"/><path fill-rule="evenodd" clip-rule="evenodd" d="M978 282c0 3.866 12.984 7 29 7 16.02 0 29-3.134 29-7s-12.98-7-29-7c-16.016 0-29 3.134-29 7Z" fill="#224A7D"/><path fill-rule="evenodd" clip-rule="evenodd" d="M978 281c0 3.866 12.984 7 29 7 16.02 0 29-3.134 29-7s-12.98-7-29-7c-16.016 0-29 3.134-29 7Z" fill="#6397D9"/><path fill-rule="evenodd" clip-rule="evenodd" d="M999 277c0 1.657 5.37 3 12 3s12-1.343 12-3-5.37-3-12-3-12 1.343-12 3ZM1036 280v3.986s-.07 2.464-5 4.014l1.18-4.318s3.46-1.495 3.82-3.682Z" fill="#162F44"/><path fill-rule="evenodd" clip-rule="evenodd" d="M978.006 280v4.085s-.389 2.043 4.994 3.915l-1.652-4.766s-2.861-1.277-3.342-3.234Z" fill="#8CC5F2"/><path fill-rule="evenodd" clip-rule="evenodd" d="m997 267.038 1.968 7.69c.488 1.914 2.422 3.272 4.652 3.272h4.23c1.59 0 3.03-.685 3.9-1.772.31-.381.54-.812.7-1.278l1.7-5.313.85-2.637-18 .038Z" fill="#FC516B"/><path fill-rule="evenodd" clip-rule="evenodd" d="M997 266c0 .552 4.03 1 9 1s9-.448 9-1-4.03-1-9-1-9 .448-9 1Z" fill="#9B293F"/><path fill-rule="evenodd" clip-rule="evenodd" d="M1009.41 276.657c-.36.137-.69.253-1 .343l2.11-.324c.29-.402.51-.857.65-1.35l1.62-5.608c.08-.27.21-.699.21-.718 0 0-4.22 1.242-8 .818 1.23.164 4.31.412 6.17.32.46-.023.82.369.76.815-.23 1.657-.9 5.074-2.52 5.704Z" fill="#F995A9"/><path fill-rule="evenodd" clip-rule="evenodd" d="m1005 263.901.68 3.087.49.012s.03-3.099 3.68-5.001c3.65-1.899 3.12-8.999 3.12-8.999v.009c-.09.183-1.49 3.099-2.55 3.291-1.09.201-1.77 1.95-1.77 1.95s-.52.75-1.15.6c-.62-.15-1.25 1.499-1.25 1.499l-.21 1.752-1.04 1.8Z" fill="#51A595"/><path fill-rule="evenodd" clip-rule="evenodd" d="M1009.99 269.987s.7-23.436-11.598-29.987c0 0-3.5 1.352.6 6.967 4.098 5.615.8 9.671 2.598 11.127 1.8 1.455 4.4 2.391 4 4.263-.4 1.872.1 3.744.9 3.952.8.207 2.6 1.312 2.88 3.691l.62-.013Z" fill="#4EC9B4"/><path fill-rule="evenodd" clip-rule="evenodd" d="m1010 265.8.04 1.188.54.012s.03-3.099 3.99-5.001c3.97-1.899 3.4-8.999 3.4-8.999v.009l-.34 1.068c0 6.449-3.72 7.787-5.21 8.648-1.49.861-2.42 3.075-2.42 3.075Z" fill="#41877A"/><path fill-rule="evenodd" clip-rule="evenodd" d="M790.185 177.105s-10.552.172-11.494-1.105l-.691 1.898s8.361 4.557 14 2.624l-1.815-3.417Z" fill="#306299"/><path fill-rule="evenodd" clip-rule="evenodd" d="M805 190.916 792.412 205s-16.822-15.082-16.404-19.81c.417-4.727 6.581-14.515 16.034-5.523C801.24 188.415 805 190.916 805 190.916Z" fill="#8CC5F2"/><path fill-rule="evenodd" clip-rule="evenodd" d="m772.565 352.654 2.566.346s12.026-42.47 8.071-73.847c-1.19-9.434-5.345-33.153-5.345-33.153l-7.857.737c.318 3.023 2.357 19.855 5.426 33.137 3.367 14.562-2.861 72.78-2.861 72.78Z" fill="#F4F2F9"/><path fill-rule="evenodd" clip-rule="evenodd" d="M786.253 175.558c1.488.324 2.299.427 2.747.442-.698-.966-1.484-2.182-1.832-3.158-.793-2.241-.799-4.33-.799-4.33s-2.971-.782-3.277-.413c-.304.368 0 6.77 3.161 7.459Z" fill="#E6846F"/><path fill-rule="evenodd" clip-rule="evenodd" d="M932 179c0 10.492 8.048 19 17.973 19 4.156 0 7.981-1.491 11.027-3.996v-30.008c-3.046-2.505-6.871-3.996-11.027-3.996-9.925 0-17.973 8.508-17.973 19Z" fill="#CEC3E2"/><path fill-rule="evenodd" clip-rule="evenodd" d="M932 179.5c0 10.216 7.493 18.5 16.734 18.5 3.869 0 7.431-1.452 10.266-3.891v-29.218c-2.835-2.439-6.397-3.891-10.266-3.891-9.241 0-16.734 8.284-16.734 18.5Z" fill="#C3B8D8"/><path fill-rule="evenodd" clip-rule="evenodd" d="M906 196.096s1.985-1.104 2.298-1.305c.314-.199 4.389.902 9.826 6.516 5.433 5.614.73 10.324 3.028 13.331 2.301 3.007.107 9.322-1.044 13.634-1.15 4.309 0 9.722 0 9.722l.06.006 1.821-.006s6.584-28.868-4.075-39.995c-2.596-2.706-5.97-4.703-9.647-5.999L906 196.096Z" fill="#44AD99"/></svg>